<svg xmlns="http://www.w3.org/2000/svg" width="235.67" height="25.576" viewBox="0 0 235.67 25.576">
  <g id="组_32079" data-name="组 32079" transform="translate(-142.791 -226.089)">
    <path id="联合_216" data-name="联合 216" d="M19409.781,14485.368a7.879,7.879,0,0,1-2.311-5.981v-10.259l-.234-.029a3.718,3.718,0,0,1-2.207-1.064,2.755,2.755,0,0,1-.84-2,3.11,3.11,0,0,1,.336-1.411,3.227,3.227,0,0,1,3.248-1.782h10.709a12.224,12.224,0,0,1,8.285,2.759,11.787,11.787,0,0,1,3.834,7.749c.063.649.1,1.25.1,1.807a11.692,11.692,0,0,1-2.744,7.8,12.622,12.622,0,0,1-7.467,4.18,20.3,20.3,0,0,1-4.082.439Q19412.094,14487.575,19409.781,14485.368Zm4.418-6.128a1.609,1.609,0,0,0,.654,1.406,3.845,3.845,0,0,0,2.188.469h.5a3.562,3.562,0,0,1,.605-.068,6.83,6.83,0,0,0,4.184-1.743,5.832,5.832,0,0,0,1.807-3.916,6.545,6.545,0,0,0-1.572-4.551,5.446,5.446,0,0,0-4.252-1.738h-4.117Zm29.928,8.2a11.362,11.362,0,0,1-1.191-.132,12.42,12.42,0,0,1-6.324-2.91,12.092,12.092,0,0,1-4.018-6.484,13.028,13.028,0,0,1-.436-3.345,11.946,11.946,0,0,1,1.543-6,12.162,12.162,0,0,1,4.414-4.463,12.425,12.425,0,0,1,4.521-1.675c.514-.063.879-.107,1.1-.132s.557-.034,1.006-.034a11.258,11.258,0,0,1,2.711.3,8.114,8.114,0,0,1,2.207.9l.2.132.234.171.068-.137a2.856,2.856,0,0,1,2.744-1.641,3.6,3.6,0,0,1,1.709.469,3.133,3.133,0,0,1,1.471,2.979v3.213a3.8,3.8,0,0,1-.768,2.544,2.667,2.667,0,0,1-2.143.908,4.264,4.264,0,0,1-1.09-.171,5.284,5.284,0,0,1-1.621-.937l-.605-.5-.4-.366c-.225-.176-.365-.288-.434-.332a7.633,7.633,0,0,0-3.648-1.04h-.635a4.132,4.132,0,0,0-.674.132,6.534,6.534,0,0,0-3.262,1.753,5.535,5.535,0,0,0-1.523,3.12,2.531,2.531,0,0,0-.062.586v.483a5.638,5.638,0,0,0,3.076,5.239,6.124,6.124,0,0,0,3.213.771,4.968,4.968,0,0,0,2.426-.581,16.227,16.227,0,0,0,2.861-2.275,3.67,3.67,0,0,1,.674-.464,3.2,3.2,0,0,1,1.4-.361,3.46,3.46,0,0,1,1.107.2,2.825,2.825,0,0,1,2.139,2.866,4.206,4.206,0,0,1-.967,2.568,11.819,11.819,0,0,1-4.268,3.438,12.725,12.725,0,0,1-5.609,1.235C19444.9,14487.473,19444.512,14487.463,19444.127,14487.438Zm-53.307,0a11.249,11.249,0,0,1-1.191-.132,12.42,12.42,0,0,1-6.324-2.91,12.068,12.068,0,0,1-4.018-6.484,12.859,12.859,0,0,1-.436-3.345,11.983,11.983,0,0,1,1.539-6,12.173,12.173,0,0,1,4.418-4.463,12.406,12.406,0,0,1,4.518-1.675c.518-.063.883-.107,1.107-.132s.557-.034,1-.034a11.268,11.268,0,0,1,2.715.3,8.114,8.114,0,0,1,2.207.9l.2.132.234.171.068-.137a2.852,2.852,0,0,1,2.744-1.641,3.569,3.569,0,0,1,1.705.469,3.129,3.129,0,0,1,1.475,2.979v3.213a3.781,3.781,0,0,1-.771,2.544,2.646,2.646,0,0,1-2.139.908,4.264,4.264,0,0,1-1.09-.171,5.293,5.293,0,0,1-1.625-.937l-.6-.5-.4-.366c-.225-.176-.365-.288-.434-.332a7.676,7.676,0,0,0-3.648-1.04h-.639a4.118,4.118,0,0,0-.67.132,6.517,6.517,0,0,0-3.262,1.753,5.535,5.535,0,0,0-1.523,3.12,2.524,2.524,0,0,0-.068.586v.483a5.633,5.633,0,0,0,3.082,5.239,6.124,6.124,0,0,0,3.213.771,4.968,4.968,0,0,0,2.426-.581,16.371,16.371,0,0,0,2.861-2.275,3.481,3.481,0,0,1,.67-.464,3.225,3.225,0,0,1,1.406-.361,3.42,3.42,0,0,1,1.1.2,2.824,2.824,0,0,1,2.143,2.866,4.188,4.188,0,0,1-.971,2.568,11.753,11.753,0,0,1-4.268,3.438,12.7,12.7,0,0,1-5.605,1.235C19391.592,14487.473,19391.211,14487.463,19390.82,14487.438Zm-21.812-.5q-4.854,0-7.445-2.559t-2.6-7.314v-11.045a2.847,2.847,0,0,1,2.279-3.013,3.079,3.079,0,0,1,.9-.166h5.42a3.286,3.286,0,0,1,2.377.869,2.98,2.98,0,0,1,.9,2.241,3.047,3.047,0,0,1-.869,2.178,2.869,2.869,0,0,1-2.145.9h-2.109v8.384a2.986,2.986,0,0,0,2.979,3.262h3.682v-.234a5.467,5.467,0,0,1,.234-1.069,2.73,2.73,0,0,1,1.109-1.406,3.115,3.115,0,0,1,1.771-.537,3.215,3.215,0,0,1,1.5.371,3.075,3.075,0,0,1,1.641,2.91v3.047a3.223,3.223,0,0,1-.785,2.427,3.562,3.562,0,0,1-2.529.752Z" transform="translate(-19216.174 -14235.91)" fill="#0183fc"/>
    <text id="Longrise_Creative_Design_Center" data-name="Longrise Creative Design Center" transform="translate(250.461 247.149)" fill="#031c55" font-size="7" font-family="SourceHanSansCN-Regular, Source Han Sans CN" letter-spacing="0.113em"><tspan x="0" y="0">Longrise Creative Design Center</tspan></text>
    <text id="永兴元创意设计中心" transform="translate(250.461 233.581)" fill="#031c55" font-size="7" font-family="SourceHanSansCN-Regular, Source Han Sans CN" letter-spacing="1.154em"><tspan x="0" y="0">永兴元创意设计中心</tspan></text>
  </g>
</svg>
