<?xml version="1.0" standalone="no"?><!DOCTYPE svg PUBLIC "-//W3C//DTD SVG 1.1//EN" "http://www.w3.org/Graphics/SVG/1.1/DTD/svg11.dtd"><svg t="1615874752009" class="icon" viewBox="0 0 1024 1024" version="1.1" xmlns="http://www.w3.org/2000/svg" p-id="2014" width="32" height="32" xmlns:xlink="http://www.w3.org/1999/xlink"><defs><style type="text/css"></style></defs><path d="M783.221622 468.641441h-230.630631a28.598198 28.598198 0 0 0 0 57.196397h230.630631a28.598198 28.598198 0 0 0 0-57.196397zM783.221622 710.342342h-230.630631a28.598198 28.598198 0 0 0 0 57.196397h230.630631a28.598198 28.598198 0 0 0 0-57.196397zM783.221622 594.104505h-230.630631a28.598198 28.598198 0 0 0 0 57.196396h230.630631a28.598198 28.598198 0 0 0 0-57.196396zM411.758703 448.345946h-144.540829A56.882739 56.882739 0 0 0 210.335135 505.228685v234.948036A56.882739 56.882739 0 0 0 267.217874 797.059459h144.540829A56.882739 56.882739 0 0 0 468.641441 740.176721V505.228685A56.882739 56.882739 0 0 0 411.758703 448.345946z m-0.516613 266.406054A23.284468 23.284468 0 0 1 387.976072 738.018018h-96.975567a23.284468 23.284468 0 0 1-23.266019-23.266018v-184.098595A23.284468 23.284468 0 0 1 291.000505 507.387387h96.975567a23.284468 23.284468 0 0 1 23.266018 23.266018zM757.077333 202.954955H265.077622A54.742486 54.742486 0 0 0 210.335135 257.697441v84.244757A54.742486 54.742486 0 0 0 265.077622 396.684685h491.999711A54.742486 54.742486 0 0 0 811.81982 341.942198v-84.244757A54.742486 54.742486 0 0 0 757.077333 202.954955z m-0.608865 110.702703a27.675676 27.675676 0 0 1-27.675675 27.675675H293.362162a27.675676 27.675676 0 0 1-27.675676-27.675675v-27.675676a27.675676 27.675676 0 0 1 27.675676-27.675676h435.430631a27.675676 27.675676 0 0 1 27.675675 27.675676z" p-id="2015" fill="#ffffff"></path></svg>